{
  "accessors": [
    {
      "bufferView": 2,
      "componentType": 5126,
      "count": 6,
      "max": [
        0.16188600659370422,
        -0.13251499831676483,
        -0.6955100297927856
      ],
      "min": [
        -0.1618890017271042,
        -0.13350600004196167,
        -0.6955159902572632
      ],
      "type": "VEC3"
    },
    {
      "bufferView": 2,
      "byteOffset": 72,
      "componentType": 5126,
      "count": 6,
      "max": [
        0.009450798854231834,
        0.10003198683261871,
        0.9999569058418274
      ],
      "min": [
        -0.9688718914985657,
        -0.000983667909167707,
        0.22645297646522522
      ],
      "type": "VEC3"
    },
    {
      "bufferView": 1,
      "componentType": 5126,
      "count": 6,
      "max": [
        -0.45321398973464966,
        0.2307099997997284
      ],
      "min": [
        -0.7129359841346741,
        0.23050299286842346
      ],
      "type": "VEC2"
    },
    {
      "bufferView": 1,
      "byteOffset": 48,
      "componentType": 5126,
      "count": 6,
      "max": [
        0.7322880029678345,
        0.15339499711990356
      ],
      "min": [
        0.47256600856781006,
        0.15318800508975983
      ],
      "type": "VEC2"
    },
    {
      "bufferView": 0,
      "componentType": 5125,
      "count": 6,
      "type": "SCALAR"
    },
    {
      "bufferView": 2,
      "byteOffset": 144,
      "componentType": 5126,
      "count": 5685,
      "max": [
        0.635558009147644,
        0.3323580026626587,
        0.7900450229644775
      ],
      "min": [
        -0.635562002658844,
        -0.3334349989891052,
        -1.1984399557113647
      ],
      "type": "VEC3"
    },
    {
      "bufferView": 2,
      "byteOffset": 68364,
      "componentType": 5126,
      "count": 5685,
      "max": [
        1.0,
        0.9999439716339111,
        1.0
      ],
      "min": [
        -1.0,
        -0.999900221824646,
        -0.9999940991401672
      ],
      "type": "VEC3"
    },
    {
      "bufferView": 3,
      "componentType": 5126,
      "count": 5685,
      "max": [
        1.0,
        1.0,
        1.0,
        1.0
      ],
      "min": [
        -1.0,
        -0.9999963045120239,
        -1.0,
        -1.0
      ],
      "type": "VEC4"
    },
    {
      "bufferView": 1,
      "byteOffset": 96,
      "componentType": 5126,
      "count": 5685,
      "max": [
        0.991782009601593,
        0.9994999766349792
      ],
      "min": [
        0.0005000000237487257,
        0.0005000000237487257
      ],
      "type": "VEC2"
    },
    {
      "bufferView": 1,
      "byteOffset": 45576,
      "componentType": 5126,
      "count": 5685,
      "max": [
        0.9981939792633057,
        0.0937815010547638
      ],
      "min": [
        -0.26534000039100647,
        -1.0041199922561646
      ],
      "type": "VEC2"
    },
    {
      "bufferView": 0,
      "byteOffset": 24,
      "componentType": 5125,
      "count": 18474,
      "type": "SCALAR"
    },
    {
      "bufferView": 2,
      "byteOffset": 136584,
      "componentType": 5126,
      "count": 1210,
      "max": [
        0.6425719857215881,
        0.37828901410102844,
        0.8015589714050293
      ],
      "min": [
        -0.6425759792327881,
        -0.3720960021018982,
        -1.1613999605178833
      ],
      "type": "VEC3"
    },
    {
      "bufferView": 2,
      "byteOffset": 151104,
      "componentType": 5126,
      "count": 1210,
      "max": [
        0.9996359944343567,
        0.9958494901657104,
        0.9297676086425781
      ],
      "min": [
        -0.9996359944343567,
        -0.999997615814209,
        -0.8370991945266724
      ],
      "type": "VEC3"
    },
    {
      "bufferView": 3,
      "byteOffset": 90960,
      "componentType": 5126,
      "count": 1210,
      "max": [
        1.0,
        0.9999766945838928,
        0.9691135883331299,
        1.0
      ],
      "min": [
        -1.0,
        -0.9999709725379944,
        -0.939082145690918,
        1.0
      ],
      "type": "VEC4"
    },
    {
      "bufferView": 1,
      "byteOffset": 91056,
      "componentType": 5126,
      "count": 1210,
      "max": [
        0.9748079776763916,
        0.9934830069541931
      ],
      "min": [
        0.0005000000237487257,
        0.0005165479960851371
      ],
      "type": "VEC2"
    },
    {
      "bufferView": 1,
      "byteOffset": 100736,
      "componentType": 5126,
      "count": 1210,
      "max": [
        0.27298200130462646,
        1.9492299556732178
      ],
      "min": [
        -0.8303980231285095,
        0.0005000000237487257
      ],
      "type": "VEC2"
    },
    {
      "bufferView": 0,
      "byteOffset": 73920,
      "componentType": 5125,
      "count": 4491,
      "type": "SCALAR"
    },
    {
      "bufferView": 2,
      "byteOffset": 165624,
      "componentType": 5126,
      "count": 145,
      "max": [
        0.11819200217723846,
        -0.03769670054316521,
        -0.7327569723129272
      ],
      "min": [
        -0.14984700083732605,
        -0.24789999425411224,
        -0.9071800112724304
      ],
      "type": "VEC3"
    },
    {
      "bufferView": 2,
      "byteOffset": 167364,
      "componentType": 5126,
      "count": 145,
      "max": [
        0.773856520652771,
        0.9997087717056274,
        0.06658083200454712
      ],
      "min": [
        -0.9948907494544983,
        -0.21432512998580933,
        -0.8074036836624146
      ],
      "type": "VEC3"
    },
    {
      "bufferView": 3,
      "byteOffset": 110320,
      "componentType": 5126,
      "count": 145,
      "max": [
        0.11217978596687317,
        0.8722484111785889,
        0.9999157786369324,
        1.0
      ],
      "min": [
        -0.3566461503505707,
        -0.8722679018974304,
        -0.9999160766601563,
        1.0
      ],
      "type": "VEC4"
    },
    {
      "bufferView": 1,
      "byteOffset": 110416,
      "componentType": 5126,
      "count": 145,
      "max": [
        0.9994999766349792,
        0.9955080151557922
      ],
      "min": [
        0.0005000000237487257,
        0.0005000000237487257
      ],
      "type": "VEC2"
    },
    {
      "bufferView": 1,
      "byteOffset": 111576,
      "componentType": 5126,
      "count": 145,
      "max": [
        2.0326099395751953,
        0.9955080151557922
      ],
      "min": [
        1.0336099863052368,
        0.0005000000237487257
      ],
      "type": "VEC2"
    },
    {
      "bufferView": 0,
      "byteOffset": 91884,
      "componentType": 5125,
      "count": 384,
      "type": "SCALAR"
    },
    {
      "bufferView": 2,
      "byteOffset": 169104,
      "componentType": 5126,
      "count": 3350,
      "max": [
        0.6355640292167664,
        0.3649199903011322,
        0.8015589714050293
      ],
      "min": [
        -0.635562002658844,
        -0.34443399310112,
        -1.0964800119400024
      ],
      "type": "VEC3"
    },
    {
      "bufferView": 2,
      "byteOffset": 209304,
      "componentType": 5126,
      "count": 3350,
      "max": [
        0.999988853931427,
        1.0,
        1.0
      ],
      "min": [
        -0.9999886155128479,
        -0.989010751247406,
        -1.0
      ],
      "type": "VEC3"
    },
    {
      "bufferView": 3,
      "byteOffset": 112640,
      "componentType": 5126,
      "count": 3350,
      "max": [
        0.9837350845336914,
        0.9999983906745911,
        0.9998976588249207,
        1.0
      ],
      "min": [
        -1.0,
        -0.9999996423721313,
        -0.9999561309814453,
        -1.0
      ],
      "type": "VEC4"
    },
    {
      "bufferView": 1,
      "byteOffset": 112736,
      "componentType": 5126,
      "count": 3350,
      "max": [
        1.0018399953842163,
        0.9845049977302551
      ],
      "min": [
        0.0028369699139147997,
        -0.0005684730131179094
      ],
      "type": "VEC2"
    },
    {
      "bufferView": 1,
      "byteOffset": 139536,
      "componentType": 5126,
      "count": 3350,
      "max": [
        0.9994999766349792,
        2.0241599082946777
      ],
      "min": [
        0.0005000000237487257,
        1.0436099767684937
      ],
      "type": "VEC2"
    },
    {
      "bufferView": 0,
      "byteOffset": 93420,
      "componentType": 5125,
      "count": 10554,
      "type": "SCALAR"
    }
  ],
  "asset": {
    "extras": {
      "author": "rsatenza (https://sketchfab.com/rsatenza)",
      "license": "CC-BY-4.0 (http://creativecommons.org/licenses/by/4.0/)",
      "source": "https://sketchfab.com/3d-models/discovery-space-shuttle-23c579b845e841c9b6c6d59bd5725bb6",
      "title": "Discovery Space Shuttle"
    },
    "generator": "Sketchfab-12.68.0",
    "version": "2.0"
  },
  "bufferViews": [
    {
      "buffer": 0,
      "byteLength": 135636,
      "name": "floatBufferViews",
      "target": 34963
    },
    {
      "buffer": 0,
      "byteLength": 166336,
      "byteOffset": 135636,
      "byteStride": 8,
      "name": "floatBufferViews",
      "target": 34962
    },
    {
      "buffer": 0,
      "byteLength": 249504,
      "byteOffset": 301972,
      "byteStride": 12,
      "name": "floatBufferViews",
      "target": 34962
    },
    {
      "buffer": 0,
      "byteLength": 166240,
      "byteOffset": 551476,
      "byteStride": 16,
      "name": "floatBufferViews",
      "target": 34962
    }
  ],
  "buffers": [
    {
      "byteLength": 717716,
      "uri": "scene.bin"
    }
  ],
  "images": [
    {
      "uri": "textures/Metal_Base_baseColor.jpeg"
    },
    {
      "uri": "textures/Metal_Base_metallicRoughness.png"
    },
    {
      "uri": "textures/Metal_Base_normal.png"
    },
    {
      "uri": "textures/Cristal_baseColor.png"
    },
    {
      "uri": "textures/Cristal_metallicRoughness.png"
    },
    {
      "uri": "textures/Cristal_normal.png"
    },
    {
      "uri": "textures/Coraza_baseColor.jpeg"
    },
    {
      "uri": "textures/Coraza_metallicRoughness.png"
    },
    {
      "uri": "textures/Coraza_normal.png"
    },
    {
      "uri": "textures/Metal_Detalle_baseColor.jpeg"
    },
    {
      "uri": "textures/Metal_Detalle_metallicRoughness.png"
    },
    {
      "uri": "textures/Metal_Detalle_normal.png"
    }
  ],
  "materials": [
    {
      "doubleSided": true,
      "name": "Metal_Base",
      "normalTexture": {
        "index": 2
      },
      "occlusionTexture": {
        "index": 1
      },
      "pbrMetallicRoughness": {
        "baseColorTexture": {
          "index": 0
        },
        "metallicRoughnessTexture": {
          "index": 1
        }
      }
    },
    {
      "alphaMode": "BLEND",
      "doubleSided": true,
      "name": "Cristal",
      "normalTexture": {
        "index": 5
      },
      "occlusionTexture": {
        "index": 4
      },
      "pbrMetallicRoughness": {
        "baseColorTexture": {
          "index": 3
        },
        "metallicRoughnessTexture": {
          "index": 4
        }
      }
    },
    {
      "doubleSided": true,
      "name": "Coraza",
      "normalTexture": {
        "index": 8
      },
      "occlusionTexture": {
        "index": 7
      },
      "pbrMetallicRoughness": {
        "baseColorTexture": {
          "index": 6
        },
        "metallicRoughnessTexture": {
          "index": 7
        }
      }
    },
    {
      "doubleSided": true,
      "name": "Metal_Detalle",
      "normalTexture": {
        "index": 11
      },
      "occlusionTexture": {
        "index": 10
      },
      "pbrMetallicRoughness": {
        "baseColorTexture": {
          "index": 9
        },
        "metallicRoughnessTexture": {
          "index": 10
        }
      }
    },
    {
      "doubleSided": true,
      "name": "Transbordador_Slot__6",
      "pbrMetallicRoughness": {
        "baseColorFactor": [
          0.0,
          0.0,
          0.0,
          1.0
        ],
        "metallicFactor": 0.0,
        "roughnessFactor": 0.6
      }
    }
  ],
  "meshes": [
    {
      "name": "defaultMaterial",
      "primitives": [
        {
          "attributes": {
            "NORMAL": 1,
            "POSITION": 0,
            "TEXCOORD_0": 2,
            "TEXCOORD_1": 3
          },
          "indices": 4,
          "material": 4,
          "mode": 4
        }
      ]
    },
    {
      "name": "defaultMaterial",
      "primitives": [
        {
          "attributes": {
            "NORMAL": 6,
            "POSITION": 5,
            "TANGENT": 7,
            "TEXCOORD_0": 8,
            "TEXCOORD_1": 9
          },
          "indices": 10,
          "material": 3,
          "mode": 4
        }
      ]
    },
    {
      "name": "defaultMaterial",
      "primitives": [
        {
          "attributes": {
            "NORMAL": 12,
            "POSITION": 11,
            "TANGENT": 13,
            "TEXCOORD_0": 14,
            "TEXCOORD_1": 15
          },
          "indices": 16,
          "material": 2,
          "mode": 4
        }
      ]
    },
    {
      "name": "defaultMaterial",
      "primitives": [
        {
          "attributes": {
            "NORMAL": 18,
            "POSITION": 17,
            "TANGENT": 19,
            "TEXCOORD_0": 20,
            "TEXCOORD_1": 21
          },
          "indices": 22,
          "material": 1,
          "mode": 4
        }
      ]
    },
    {
      "name": "defaultMaterial",
      "primitives": [
        {
          "attributes": {
            "NORMAL": 24,
            "POSITION": 23,
            "TANGENT": 25,
            "TEXCOORD_0": 26,
            "TEXCOORD_1": 27
          },
          "indices": 28,
          "material": 0,
          "mode": 4
        }
      ]
    }
  ],
  "nodes": [
    {
      "children": [
        1
      ],
      "matrix": [
        15.455893516540527,
        0.0,
        0.0,
        0.0,
        0.0,
        3.4318977696435942e-15,
        -15.455893516540527,
        0.0,
        0.0,
        15.455893516540527,
        3.4318977696435942e-15,
        0.0,
        0.0,
        -2.3676776095271634e-08,
        1.187788534195983e-09,
        1.0
      ],
      "name": "Sketchfab_model"
    },
    {
      "children": [
        2,
        4,
        6,
        8,
        10
      ],
      "matrix": [
        1.0,
        0.0,
        0.0,
        0.0,
        0.0,
        -4.371139006309477e-08,
        0.999999999999999,
        0.0,
        0.0,
        -0.999999999999999,
        -4.371139006309477e-08,
        0.0,
        0.0,
        0.0,
        0.0,
        1.0
      ],
      "name": "Collada visual scene group"
    },
    {
      "children": [
        3
      ],
      "name": "Nave"
    },
    {
      "mesh": 0,
      "name": "defaultMaterial"
    },
    {
      "children": [
        5
      ],
      "name": "Nave"
    },
    {
      "mesh": 1,
      "name": "defaultMaterial"
    },
    {
      "children": [
        7
      ],
      "name": "Nave"
    },
    {
      "mesh": 2,
      "name": "defaultMaterial"
    },
    {
      "children": [
        9
      ],
      "name": "Nave"
    },
    {
      "mesh": 3,
      "name": "defaultMaterial"
    },
    {
      "children": [
        11
      ],
      "name": "Nave"
    },
    {
      "mesh": 4,
      "name": "defaultMaterial"
    }
  ],
  "samplers": [
    {
      "magFilter": 9729,
      "minFilter": 9987,
      "wrapS": 10497,
      "wrapT": 10497
    }
  ],
  "scene": 0,
  "scenes": [
    {
      "name": "Sketchfab_Scene",
      "nodes": [
        0
      ]
    }
  ],
  "textures": [
    {
      "sampler": 0,
      "source": 0
    },
    {
      "sampler": 0,
      "source": 1
    },
    {
      "sampler": 0,
      "source": 2
    },
    {
      "sampler": 0,
      "source": 3
    },
    {
      "sampler": 0,
      "source": 4
    },
    {
      "sampler": 0,
      "source": 5
    },
    {
      "sampler": 0,
      "source": 6
    },
    {
      "sampler": 0,
      "source": 7
    },
    {
      "sampler": 0,
      "source": 8
    },
    {
      "sampler": 0,
      "source": 9
    },
    {
      "sampler": 0,
      "source": 10
    },
    {
      "sampler": 0,
      "source": 11
    }
  ]
}
